<svg width="787" height="178" viewBox="0 0 787 178" fill="none" xmlns="http://www.w3.org/2000/svg">
<path opacity="0.47" d="M19.59 143.638C5.91494 125.776 -0.483747 103.396 1.68271 81.0051C3.84917 58.6142 14.4198 37.8761 31.2656 22.9676C48.1114 8.05904 69.9807 0.0877913 92.4689 0.659302C114.957 1.23081 136.393 10.3026 152.46 26.0476C144.199 17.7881 134.391 11.2367 123.598 6.76746C112.804 2.29821 101.236 -0.00139212 89.5544 6.32264e-07C77.8723 0.00139339 66.3049 2.30375 55.5126 6.77557C44.7203 11.2474 34.9145 17.8011 26.655 26.0626C18.3955 34.3241 11.8441 44.1314 7.37486 54.9248C2.90561 65.7182 0.60603 77.2861 0.607423 88.9682C0.608816 100.65 2.91116 112.218 7.38298 123.01C11.8548 133.802 18.4085 143.608 26.67 151.868C24.1454 149.27 21.781 146.522 19.59 143.638Z" fill="white"/>
<path opacity="0.08" d="M157.36 35.0172C170.916 52.7027 177.265 74.8695 175.125 97.05C172.986 119.231 162.519 139.776 145.832 154.544C129.146 169.313 107.482 177.207 85.2054 176.636C62.9294 176.065 41.6978 167.071 25.79 151.467C33.9714 159.644 43.6832 166.129 54.3708 170.553C65.0585 174.976 76.5129 177.251 88.0798 177.248C99.6467 177.245 111.1 174.963 121.785 170.534C132.47 166.104 142.178 159.614 150.355 151.432C158.532 143.251 165.017 133.539 169.441 122.851C173.864 112.164 176.139 100.709 176.136 89.1424C176.133 77.5755 173.851 66.1225 169.422 55.4373C164.992 44.7521 158.501 35.0439 150.32 26.8672C152.829 29.4391 155.18 32.1608 157.36 35.0172Z" fill="white"/>
<path opacity="0.35" d="M88.94 177.887C138.06 177.887 177.88 138.067 177.88 88.9468C177.88 39.8266 138.06 0.00683594 88.94 0.00683594C39.8198 0.00683594 0 39.8266 0 88.9468C0 138.067 39.8198 177.887 88.94 177.887Z" fill="url(#paint0_linear)"/>
<path d="M82.3898 146.287C105.647 146.287 124.5 127.434 124.5 104.177C124.5 80.9207 105.647 62.0674 82.3898 62.0674C59.1331 62.0674 40.2798 80.9207 40.2798 104.177C40.2798 127.434 59.1331 146.287 82.3898 146.287Z" fill="url(#paint1_linear)"/>
<path d="M120.41 93.5374C135.669 93.5374 148.04 81.167 148.04 65.9073C148.04 50.6477 135.669 38.2773 120.41 38.2773C105.15 38.2773 92.7798 50.6477 92.7798 65.9073C92.7798 81.167 105.15 93.5374 120.41 93.5374Z" fill="url(#paint2_linear)"/>
<path d="M97.2699 81.0672C100.033 85.2796 103.896 88.656 108.44 90.8311C112.984 93.0061 118.036 93.897 123.05 93.4072C121.138 86.175 117.333 79.5831 112.026 74.3101C106.72 69.0372 100.104 65.2737 92.8599 63.4072C92.2802 69.624 93.8356 75.8528 97.2699 81.0672Z" fill="#366092"/>
<path d="M76.52 52.5469C83.0094 52.5469 88.27 47.2862 88.27 40.7969C88.27 34.3075 83.0094 29.0469 76.52 29.0469C70.0307 29.0469 64.77 34.3075 64.77 40.7969C64.77 47.2862 70.0307 52.5469 76.52 52.5469Z" fill="url(#paint3_linear)"/>
<path d="M225.78 146.618C219.227 146.618 215.957 143.301 215.97 136.668L216.04 67.5776C216.04 61.0376 219.227 57.7709 225.6 57.7776C231.973 57.7842 235.2 61.0576 235.28 67.5976V67.9876C237.161 64.736 239.939 62.0943 243.28 60.3776C246.944 58.4527 251.032 57.4795 255.17 57.5476C260.296 57.4422 265.341 58.8321 269.69 61.5476C273.956 64.3343 277.335 68.2829 279.43 72.9276C281.873 78.4517 283.058 84.4495 282.9 90.4876C283.041 96.5509 281.843 102.571 279.39 108.118C277.305 112.791 273.934 116.776 269.67 119.608C265.333 122.364 260.277 123.773 255.14 123.658C251.126 123.705 247.161 122.771 243.59 120.938C240.292 119.303 237.502 116.8 235.52 113.698V136.698C235.48 143.311 232.233 146.618 225.78 146.618ZM249.31 109.058C251.222 109.122 253.123 108.75 254.869 107.97C256.616 107.191 258.162 106.024 259.39 104.558C261.977 101.551 263.273 96.8576 263.28 90.4776C263.287 84.0976 262 79.4709 259.42 76.5976C258.132 75.1927 256.566 74.0708 254.821 73.3034C253.076 72.536 251.191 72.1397 249.285 72.1397C247.379 72.1397 245.494 72.536 243.749 73.3034C242.004 74.0708 240.438 75.1927 239.15 76.5976C236.557 79.5709 235.26 84.1976 235.26 90.4776C235.26 96.7576 236.547 101.451 239.12 104.558C240.369 106.028 241.934 107.197 243.699 107.976C245.464 108.756 247.382 109.125 249.31 109.058Z" fill="white"/>
<path d="M325.23 123.727C319.066 123.867 312.964 122.465 307.48 119.647C302.546 117.033 298.486 113.032 295.8 108.137C292.929 102.714 291.506 96.6413 291.67 90.5071C291.518 84.4164 292.948 78.3904 295.82 73.0171C298.502 68.1386 302.57 64.1646 307.51 61.5971C313.058 58.9638 319.123 57.5977 325.265 57.5977C331.407 57.5977 337.471 58.9638 343.02 61.5971C347.969 64.1785 352.051 68.1564 354.76 73.0371C357.661 78.4039 359.103 84.4384 358.94 90.5371C359.097 96.6771 357.646 102.752 354.73 108.157C351.999 113.038 347.915 117.024 342.97 119.637C337.492 122.463 331.392 123.869 325.23 123.727ZM325.23 109.137C327.15 109.191 329.057 108.814 330.812 108.033C332.567 107.253 334.124 106.089 335.37 104.627C337.997 101.62 339.33 96.9305 339.37 90.5571C339.41 84.1838 338.1 79.5538 335.44 76.6671C334.188 75.2186 332.63 74.0669 330.878 73.2955C329.125 72.524 327.224 72.1523 325.31 72.2071C323.404 72.143 321.509 72.5089 319.764 73.2775C318.019 74.0461 316.469 75.1978 315.23 76.6471C312.65 79.6205 311.353 84.2471 311.34 90.5271C311.327 96.8071 312.613 101.5 315.2 104.607C316.424 106.07 317.962 107.238 319.701 108.022C321.44 108.807 323.333 109.188 325.24 109.137H325.23Z" fill="white"/>
<path d="M393.67 123.797C378.43 123.797 370.817 115.311 370.83 98.3372L370.89 40.0972C370.89 33.4706 374.167 30.1572 380.72 30.1572C387.273 30.1572 390.497 33.4906 390.39 40.1572L390.33 97.6172C390.33 101.147 391.08 103.757 392.59 105.427C393.341 106.266 394.269 106.928 395.306 107.365C396.344 107.803 397.465 108.005 398.59 107.957C399.259 107.96 399.927 107.917 400.59 107.827C401.21 107.746 401.834 107.702 402.46 107.697C403.019 107.603 403.593 107.677 404.111 107.908C404.629 108.139 405.067 108.518 405.37 108.997C405.917 109.951 406.193 111.887 406.2 114.807C406.2 119.801 404.087 122.641 399.86 123.327C399 123.407 398.01 123.517 396.86 123.647C395.8 123.753 394.735 123.803 393.67 123.797Z" fill="white"/>
<path d="M429.28 146.868C425.84 146.868 423.41 145.594 421.99 143.048C420.57 140.501 420.636 137.554 422.19 134.208L429.05 118.968L408.05 70.6576C406.683 67.3243 406.706 64.3743 408.12 61.8076C409.533 59.2409 412.4 57.9743 416.72 58.0076C418.717 57.9159 420.689 58.4853 422.33 59.6276C423.75 60.7076 425.06 62.7543 426.26 65.7676L439.4 99.3576L453.12 65.6676C454.326 62.7409 455.686 60.7409 457.2 59.6676C459.024 58.5012 461.168 57.938 463.33 58.0576C466.596 58.0576 468.9 59.3276 470.24 61.8676C471.58 64.4076 471.51 67.3143 470.03 70.5876L439.67 139.338C438.38 142.258 436.93 144.238 435.34 145.268C433.523 146.389 431.414 146.946 429.28 146.868Z" fill="white"/>
<path d="M510.47 123.647C505.21 123.647 501.543 121.021 499.47 115.767L481.3 70.6773C479.933 67.1439 479.96 64.1439 481.38 61.6773C482.8 59.2106 485.49 57.9839 489.45 57.9973C491.407 57.9254 493.335 58.4942 494.94 59.6173C496.36 60.6973 497.62 62.7473 498.74 65.7573L511.36 99.7573L524.7 64.1373C526.16 60.0906 528.916 58.0706 532.97 58.0773C537.023 58.0839 539.82 60.1073 541.36 64.1473L554.49 100.317L567.44 65.3173C568.44 62.5673 569.79 60.6773 571.38 59.6373C572.976 58.6087 574.841 58.0731 576.74 58.0973C580.44 58.0973 582.85 59.3972 583.97 61.9772C585.09 64.5572 584.97 67.4873 583.58 70.7573L565.45 115.757C563.383 121.011 559.716 123.634 554.45 123.627C549.183 123.621 545.517 120.991 543.45 115.737L532.24 86.4173L521.24 115.587C519.306 120.974 515.716 123.661 510.47 123.647Z" fill="white"/>
<path d="M606.67 123.747C599.957 123.747 596.603 120.414 596.61 113.747L596.66 67.9073C596.66 61.3673 599.847 58.1006 606.22 58.1073C612.593 58.1139 615.777 61.3873 615.77 67.9273V70.2573C618.87 62.5973 625.287 58.4706 635.02 57.8773C635.922 57.7329 636.846 57.8045 637.715 58.0861C638.584 58.3677 639.374 58.8513 640.02 59.4973C641.18 60.7506 641.803 62.794 641.89 65.6273C642.168 67.8676 641.586 70.13 640.26 71.9573C639.013 73.5106 636.927 74.454 634 74.7873L631 75.0473C621.36 75.9873 616.533 80.8873 616.52 89.7473V113.747C616.473 120.421 613.19 123.754 606.67 123.747Z" fill="white"/>
<path d="M669.56 124.067C665.227 124.147 660.936 123.212 657.03 121.337C653.58 119.664 650.624 117.125 648.45 113.967C646.345 110.889 645.245 107.235 645.3 103.507C645.3 98.9472 646.506 95.2806 648.92 92.5072C651.333 89.7339 655.25 87.7872 660.67 86.6672C666.09 85.5139 673.28 84.9405 682.24 84.9472H686.89V82.7472C686.89 78.9606 686.03 76.2705 684.31 74.6772C682.59 73.0772 679.67 72.2772 675.53 72.2772C672.972 72.304 670.423 72.582 667.92 73.1072C664.868 73.7558 661.882 74.683 659 75.8772C656.586 76.9106 654.563 76.9739 652.93 76.0672C652.136 75.6377 651.439 75.0479 650.885 74.3353C650.331 73.6226 649.931 72.8026 649.71 71.9272C649.189 70.0622 649.353 68.0726 650.17 66.3172C650.635 65.3233 651.308 64.4405 652.143 63.7282C652.977 63.0158 653.955 62.4904 655.01 62.1872C658.709 60.7388 662.536 59.6407 666.44 58.9072C669.697 58.2792 673.003 57.9446 676.32 57.9072C686.14 57.9072 693.473 60.1305 698.32 64.5772C703.167 69.0239 705.57 75.8905 705.53 85.1772V113.847C705.53 120.481 702.53 123.791 696.53 123.777C690.53 123.764 687.436 120.461 687.25 113.867V113.097C685.991 116.397 683.701 119.203 680.72 121.097C677.368 123.151 673.489 124.183 669.56 124.067ZM673.96 111.067C675.663 111.103 677.355 110.79 678.932 110.147C680.509 109.503 681.938 108.544 683.13 107.327C684.383 106.055 685.362 104.54 686.007 102.875C686.652 101.211 686.949 99.4313 686.88 97.6472V95.0672H682.37C675.743 95.0672 671.05 95.6439 668.29 96.7972C667.046 97.2183 665.971 98.0298 665.225 99.1108C664.479 100.192 664.102 101.485 664.15 102.797C664.117 103.909 664.325 105.016 664.758 106.041C665.191 107.066 665.84 107.985 666.66 108.737C668.34 110.247 670.77 111.017 673.96 111.027V111.067Z" fill="white"/>
<path d="M729.83 147.107C723.29 147.107 720.023 143.791 720.03 137.157L720.1 68.0673C720.1 61.5273 723.286 58.2606 729.66 58.2673C736.033 58.274 739.26 61.5473 739.34 68.0873V68.4773C741.221 65.2257 743.998 62.584 747.34 60.8673C751.003 58.9412 755.092 57.968 759.23 58.0373C764.356 57.9273 769.403 59.3176 773.75 62.0373C778.017 64.8175 781.398 68.7636 783.49 73.4073C785.933 78.9314 787.118 84.9292 786.96 90.9673C787.102 97.0307 785.904 103.051 783.45 108.597C781.35 113.283 777.957 117.272 773.67 120.097C769.328 122.836 764.272 124.228 759.14 124.097C755.157 124.147 751.221 123.231 747.67 121.427C744.372 119.792 741.582 117.289 739.6 114.187V137.187C739.546 143.814 736.29 147.121 729.83 147.107ZM753.37 109.557C755.281 109.615 757.181 109.239 758.927 108.458C760.673 107.677 762.219 106.511 763.45 105.047C766.037 102.041 767.333 97.3473 767.34 90.9673C767.346 84.5873 766.06 79.9606 763.48 77.0873C762.191 75.6821 760.624 74.5602 758.878 73.7927C757.133 73.0251 755.247 72.6288 753.34 72.6288C751.433 72.6288 749.547 73.0251 747.801 73.7927C746.056 74.5602 744.489 75.6821 743.2 77.0873C740.62 80.0606 739.326 84.6873 739.32 90.9673C739.313 97.2473 740.6 101.941 743.18 105.047C744.429 106.519 745.994 107.688 747.758 108.469C749.523 109.25 751.441 109.622 753.37 109.557Z" fill="white"/>
<defs>
<linearGradient id="paint0_linear" x1="170.904" y1="124.988" x2="62.4034" y2="-15.5296" gradientUnits="userSpaceOnUse">
<stop offset="0.11" stop-color="#878787"/>
<stop offset="0.8" stop-color="white"/>
</linearGradient>
<linearGradient id="paint1_linear" x1="99.5294" y1="75.1858" x2="67.939" y2="129.958" gradientUnits="userSpaceOnUse">
<stop offset="0.14" stop-color="#74DD9F"/>
<stop offset="0.8" stop-color="#27C69F"/>
</linearGradient>
<linearGradient id="paint2_linear" x1="148.631" y1="65.9606" x2="93.3654" y2="65.2564" gradientUnits="userSpaceOnUse">
<stop offset="0.39" stop-color="#1B5FED"/>
<stop offset="0.73" stop-color="#1B87ED"/>
</linearGradient>
<linearGradient id="paint3_linear" x1="64.77" y1="40.7969" x2="88.27" y2="40.7969" gradientUnits="userSpaceOnUse">
<stop offset="0.34" stop-color="#FFC272"/>
<stop offset="0.77" stop-color="#FFE272"/>
</linearGradient>
</defs>
</svg>
