<svg width="1250" height="1251" viewBox="0 0 1250 1251" fill="none" xmlns="http://www.w3.org/2000/svg">
<path d="M303.726 744.198V715.655C284.385 740.767 262.133 746.85 236.137 746.85C211.961 746.85 190.697 738.635 178.115 726.053C153.835 702.085 149 662.468 149 625.242C149 588.016 153.835 548.347 178.011 524.171C190.593 511.589 211.857 503.375 236.033 503.375C262.029 503.375 283.917 509.198 303.258 533.842V399.912H338.04V744.198H303.726ZM243.78 534.309C192.049 534.309 183.834 578.97 183.834 625.242C183.834 671.514 192.049 716.123 243.78 716.123C295.511 716.123 303.258 671.67 303.258 625.242C303.258 578.814 295.511 534.309 243.78 534.309Z" fill="white" fill-opacity="0.5"/>
<path d="M626.748 711.288C577.758 758.982 499.695 758.982 450.705 711.288C418.315 678.897 418.315 645.051 418.315 572.055C418.315 499.059 418.315 465.161 450.549 432.771C499.539 385.076 577.602 385.076 626.592 432.771C658.982 465.161 658.982 499.007 658.982 572.055C658.982 645.103 659.138 678.897 626.748 711.288ZM598.205 454.555C582.449 438.744 561.047 429.857 538.727 429.857C516.406 429.857 495.004 438.744 479.249 454.555C457.464 476.807 455.073 499.995 455.073 572.055C455.073 644.115 457.464 667.303 479.249 689.556C512.099 722.4 565.354 722.4 598.205 689.556C619.937 667.303 622.381 644.063 622.381 572.055C622.381 500.047 619.937 476.807 598.205 454.555Z" fill="white" fill-opacity="0.5"/>
<path d="M872.355 551.727C859.305 538.677 849.634 534.31 831.229 534.31C796.447 534.31 774.039 561.865 774.039 598.155V744.198H739.205V506.182H774.039V535.297C787.089 515.489 813.188 503.375 840.744 503.375C863.464 503.375 880.881 508.574 897.934 525.627L872.355 551.727Z" fill="white" fill-opacity="0.5"/>
<path d="M1002.9 853.432C967.135 853.432 947.274 844.282 922.162 821.561L944.882 799.309C962.247 814.907 974.361 823.017 1002.07 823.017C1048.03 823.017 1067.37 790.575 1067.37 750.229V712.744C1048.03 737.388 1026.25 743.938 1000.62 743.938C979.414 744.597 958.788 736.969 943.115 722.674C919.251 698.55 913.896 662.156 913.896 623.319C913.896 584.481 919.095 547.879 942.959 524.171C955.489 511.589 976.753 503.375 1000.98 503.375C1026.98 503.375 1048.34 509.198 1067.69 534.31V506.182H1102V751.425C1102 810.435 1065.24 853.432 1002.9 853.432ZM1008.1 534.31C956.372 534.31 948.626 578.814 948.626 623.319C948.626 667.823 956.372 712.276 1008.1 712.276C1059.84 712.276 1067.11 667.771 1067.11 623.319C1067.11 578.866 1059.94 534.31 1008.21 534.31H1008.1Z" fill="white" fill-opacity="0.5"/>
<path d="M559.731 567.792L557.911 565.972L556.092 564.101C552.292 568.418 546.818 570.892 541.066 570.892C535.315 570.892 529.841 568.418 526.041 564.101L524.221 565.972L522.401 567.792C526.802 571.366 529.357 576.733 529.357 582.402C529.357 588.07 526.802 593.437 522.401 597.011L526.041 600.754C529.841 596.437 535.315 593.963 541.066 593.963C546.818 593.963 552.292 596.437 556.092 600.754L559.731 597.011C555.348 593.427 552.806 588.064 552.806 582.402C552.806 576.739 555.348 571.376 559.731 567.792Z" fill="white" fill-opacity="0.5"/>
<path d="M603.456 560.357C603.456 560.045 603.456 559.733 603.456 559.421C603.456 557.446 603.456 555.418 603.456 553.494C603.382 551.578 603.191 549.668 602.884 547.775C602.643 545.361 601.992 543.005 600.96 540.809C599.987 538.658 598.631 536.702 596.957 535.037C595.221 533.382 593.17 532.091 590.926 531.242C588.507 530.233 585.904 529.737 583.283 529.786C580.645 529.737 578.026 530.233 575.588 531.242C573.369 532.15 571.353 533.493 569.661 535.193C567.988 536.858 566.631 538.814 565.658 540.964C564.679 543.118 564.064 545.42 563.838 547.775C563.579 549.543 563.423 551.415 563.319 553.338C563.215 555.262 563.319 557.29 563.319 559.265V560.201L603.456 560.357Z" fill="white" fill-opacity="0.5"/>
<path d="M583.179 529.63C592.253 529.63 599.608 522.275 599.608 513.201C599.608 504.127 592.253 496.772 583.179 496.772C574.106 496.772 566.75 504.127 566.75 513.201C566.75 522.275 574.106 529.63 583.179 529.63Z" fill="white" fill-opacity="0.5"/>
<path d="M520.478 560.357V559.421C520.478 557.446 520.478 555.418 520.478 553.494C520.478 551.571 520.218 549.699 520.01 547.931C519.761 545.524 519.129 543.172 518.138 540.964C517.125 538.824 515.753 536.872 514.083 535.193C512.401 533.505 510.405 532.163 508.208 531.242C500.956 528.138 492.549 529.696 486.891 535.193C485.235 536.872 483.88 538.824 482.888 540.964C481.841 543.111 481.139 545.41 480.808 547.775C480.808 549.543 480.445 551.415 480.289 553.338C480.133 555.262 480.289 557.29 480.289 559.265C480.289 559.577 480.289 559.889 480.289 560.201L520.478 560.357Z" fill="white" fill-opacity="0.5"/>
<path d="M500.149 529.63C509.223 529.63 516.578 522.275 516.578 513.201C516.578 504.127 509.223 496.772 500.149 496.772C491.076 496.772 483.72 504.127 483.72 513.201C483.72 522.275 491.076 529.63 500.149 529.63Z" fill="white" fill-opacity="0.5"/>
<path d="M520.478 653.577V652.694C520.478 650.666 520.478 648.69 520.478 646.715C520.478 644.739 520.218 642.919 520.01 641.203C519.767 638.778 519.135 636.408 518.138 634.185C517.125 632.044 515.753 630.092 514.083 628.414C512.387 626.742 510.395 625.402 508.208 624.462C500.956 621.358 492.549 622.916 486.891 628.414C485.235 630.092 483.88 632.045 482.888 634.185C481.803 636.445 481.1 638.869 480.808 641.359C480.808 643.075 480.445 644.947 480.289 646.871C480.133 648.794 480.289 650.822 480.289 652.849C480.289 653.161 480.289 653.421 480.289 653.733L520.478 653.577Z" fill="white" fill-opacity="0.5"/>
<path d="M500.149 622.851C509.223 622.851 516.578 615.495 516.578 606.421C516.578 597.348 509.223 589.992 500.149 589.992C491.076 589.992 483.72 597.348 483.72 606.421C483.72 615.495 491.076 622.851 500.149 622.851Z" fill="white" fill-opacity="0.5"/>
<path d="M601.948 653.577C601.948 653.266 601.948 653.006 601.948 652.694C601.948 650.666 601.948 648.69 601.948 646.715C601.846 644.919 601.638 643.131 601.324 641.36C601.09 638.927 600.439 636.553 599.4 634.341C598.427 632.19 597.071 630.234 595.397 628.57C593.692 626.886 591.68 625.545 589.47 624.618C587.04 623.65 584.443 623.173 581.827 623.215C579.195 623.173 576.581 623.65 574.133 624.618C571.923 625.545 569.911 626.886 568.206 628.57C566.532 630.234 565.175 632.19 564.202 634.341C563.181 636.556 562.548 638.93 562.331 641.36C562.331 643.075 561.915 644.947 561.811 646.871C561.707 648.794 561.811 650.822 561.811 652.85V653.733L601.948 653.577Z" fill="white" fill-opacity="0.5"/>
<path d="M581.671 622.851C590.745 622.851 598.101 615.495 598.101 606.421C598.101 597.348 590.745 589.992 581.671 589.992C572.598 589.992 565.242 597.348 565.242 606.421C565.242 615.495 572.598 622.851 581.671 622.851Z" fill="white" fill-opacity="0.5"/>
</svg>
