<?xml version="1.0" encoding="UTF-8" standalone="no"?>
<svg
   xmlns:dc="http://purl.org/dc/elements/1.1/"
   xmlns:cc="http://creativecommons.org/ns#"
   xmlns:rdf="http://www.w3.org/1999/02/22-rdf-syntax-ns#"
   xmlns:svg="http://www.w3.org/2000/svg"
   xmlns="http://www.w3.org/2000/svg"
   xmlns:sodipodi="http://sodipodi.sourceforge.net/DTD/sodipodi-0.dtd"
   xmlns:inkscape="http://www.inkscape.org/namespaces/inkscape"
   inkscape:version="1.0 (6e3e5246a0, 2020-05-07)"
   sodipodi:docname="GraphQL_Logo_white.svg"
   xml:space="preserve"
   enable-background="new 0 0 400 400"
   viewBox="0 0 400 400"
   y="0px"
   x="0px"
   id="GraphQL_Logo"
   version="1.1"><metadata
   id="metadata1304"><rdf:RDF><cc:Work
       rdf:about=""><dc:format>image/svg+xml</dc:format><dc:type
         rdf:resource="http://purl.org/dc/dcmitype/StillImage" /><dc:title></dc:title></cc:Work></rdf:RDF></metadata><defs
   id="defs1302" /><sodipodi:namedview
   inkscape:current-layer="GraphQL_Logo"
   inkscape:window-maximized="1"
   inkscape:window-y="0"
   inkscape:window-x="2560"
   inkscape:cy="232.59067"
   inkscape:cx="646.11914"
   inkscape:zoom="0.76897863"
   showgrid="false"
   id="namedview1300"
   inkscape:window-height="1013"
   inkscape:window-width="1680"
   inkscape:pageshadow="2"
   inkscape:pageopacity="0"
   guidetolerance="10"
   gridtolerance="10"
   objecttolerance="10"
   borderopacity="1"
   bordercolor="#666666"
   pagecolor="#ffffff" />
<g
   transform="matrix(0.87831359,0,0,0.87831359,24.337283,24.337283)"
   style="fill:#ffffff"
   id="g1297">
	<g
   style="fill:#ffffff"
   id="g1235">
		<g
   style="fill:#ffffff"
   id="g1233">
			
				<rect
   style="fill:#ffffff"
   id="rect1231"
   height="320.29999"
   width="16.6"
   fill="#E535AB"
   transform="matrix(-0.866,-0.5,0.5,-0.866,163.3196,363.3136)"
   y="-0.40000001"
   x="122" />
		</g>
	</g>
	<g
   style="fill:#ffffff"
   id="g1241">
		<g
   style="fill:#ffffff"
   id="g1239">
			<rect
   style="fill:#ffffff"
   id="rect1237"
   height="16.6"
   width="320.29999"
   fill="#E535AB"
   y="272.20001"
   x="39.799999" />
		</g>
	</g>
	<g
   style="fill:#ffffff"
   id="g1247">
		<g
   style="fill:#ffffff"
   id="g1245">
			
				<rect
   style="fill:#ffffff"
   id="rect1243"
   height="16.6"
   width="185"
   fill="#E535AB"
   transform="matrix(-0.866,-0.5,0.5,-0.866,83.0693,663.3409)"
   y="312.20001"
   x="37.900002" />
		</g>
	</g>
	<g
   style="fill:#ffffff"
   id="g1253">
		<g
   style="fill:#ffffff"
   id="g1251">
			
				<rect
   style="fill:#ffffff"
   id="rect1249"
   height="16.6"
   width="185"
   fill="#E535AB"
   transform="matrix(-0.866,-0.5,0.5,-0.866,463.3409,283.0693)"
   y="71.099998"
   x="177.10001" />
		</g>
	</g>
	<g
   style="fill:#ffffff"
   id="g1259">
		<g
   style="fill:#ffffff"
   id="g1257">
			
				<rect
   style="fill:#ffffff"
   id="rect1255"
   height="185"
   width="16.6"
   fill="#E535AB"
   transform="matrix(-0.5,-0.866,0.866,-0.5,126.7903,232.1221)"
   y="-13"
   x="122.1" />
		</g>
	</g>
	<g
   style="fill:#ffffff"
   id="g1265">
		<g
   style="fill:#ffffff"
   id="g1263">
			
				<rect
   style="fill:#ffffff"
   id="rect1261"
   height="16.6"
   width="320.29999"
   fill="#E535AB"
   transform="matrix(-0.5,-0.866,0.866,-0.5,266.0828,473.3766)"
   y="151.60001"
   x="109.6" />
		</g>
	</g>
	<g
   style="fill:#ffffff"
   id="g1271">
		<g
   style="fill:#ffffff"
   id="g1269">
			<rect
   style="fill:#ffffff"
   id="rect1267"
   height="185"
   width="16.6"
   fill="#E535AB"
   y="107.5"
   x="52.5" />
		</g>
	</g>
	<g
   style="fill:#ffffff"
   id="g1277">
		<g
   style="fill:#ffffff"
   id="g1275">
			<rect
   style="fill:#ffffff"
   id="rect1273"
   height="185"
   width="16.6"
   fill="#E535AB"
   y="107.5"
   x="330.89999" />
		</g>
	</g>
	<g
   style="fill:#ffffff"
   id="g1283">
		<g
   style="fill:#ffffff"
   id="g1281">
			
				<rect
   style="fill:#ffffff"
   id="rect1279"
   height="160.89999"
   width="14.5"
   fill="#E535AB"
   transform="matrix(-0.5,-0.866,0.866,-0.5,126.7953,714.2875)"
   y="240.10001"
   x="262.39999" />
		</g>
	</g>
	<path
   style="fill:#ffffff"
   id="path1285"
   d="m 369.5,297.9 c -9.6,16.7 -31,22.4 -47.7,12.8 -16.7,-9.6 -22.4,-31 -12.8,-47.7 9.6,-16.7 31,-22.4 47.7,-12.8 16.8,9.7 22.5,31 12.8,47.7"
   fill="#E535AB" />
	<path
   style="fill:#ffffff"
   id="path1287"
   d="m 90.9,137 c -9.6,16.7 -31,22.4 -47.7,12.8 -16.7,-9.6 -22.4,-31 -12.8,-47.7 9.6,-16.7 31,-22.4 47.7,-12.8 16.7,9.7 22.4,31 12.8,47.7"
   fill="#E535AB" />
	<path
   style="fill:#ffffff"
   id="path1289"
   d="m 30.5,297.9 c -9.6,-16.7 -3.9,-38 12.8,-47.7 16.7,-9.6 38,-3.9 47.7,12.8 9.6,16.7 3.9,38 -12.8,47.7 -16.8,9.6 -38.1,3.9 -47.7,-12.8"
   fill="#E535AB" />
	<path
   style="fill:#ffffff"
   id="path1291"
   d="m 309.1,137 c -9.6,-16.7 -3.9,-38 12.8,-47.7 16.7,-9.6 38,-3.9 47.7,12.8 9.6,16.7 3.9,38 -12.8,47.7 -16.7,9.6 -38.1,3.9 -47.7,-12.8"
   fill="#E535AB" />
	<path
   style="fill:#ffffff"
   id="path1293"
   d="m 200,395.8 c -19.3,0 -34.9,-15.6 -34.9,-34.9 0,-19.3 15.6,-34.9 34.9,-34.9 19.3,0 34.9,15.6 34.9,34.9 0,19.2 -15.6,34.9 -34.9,34.9"
   fill="#E535AB" />
	<path
   style="fill:#ffffff"
   id="path1295"
   d="m 200,74 c -19.3,0 -34.9,-15.6 -34.9,-34.9 0,-19.3 15.6,-34.9 34.9,-34.9 19.3,0 34.9,15.6 34.9,34.9 0,19.3 -15.6,34.9 -34.9,34.9"
   fill="#E535AB" />
</g>
</svg>
