<?xml version="1.0" encoding="UTF-8" standalone="no"?>
<svg
   xmlns:dc="http://purl.org/dc/elements/1.1/"
   xmlns:cc="http://creativecommons.org/ns#"
   xmlns:rdf="http://www.w3.org/1999/02/22-rdf-syntax-ns#"
   xmlns:svg="http://www.w3.org/2000/svg"
   xmlns="http://www.w3.org/2000/svg"
   xmlns:sodipodi="http://sodipodi.sourceforge.net/DTD/sodipodi-0.dtd"
   xmlns:inkscape="http://www.inkscape.org/namespaces/inkscape"
   inkscape:version="1.0 (6e3e5246a0, 2020-05-07)"
   sodipodi:docname="multiplatformwhite.svg"
   id="svg24"
   version="1.1"
   y="0px"
   x="0px"
   viewBox="0 0 64 80">
  <metadata
     id="metadata30">
    <rdf:RDF>
      <cc:Work
         rdf:about="">
        <dc:format>image/svg+xml</dc:format>
        <dc:type
           rdf:resource="http://purl.org/dc/dcmitype/StillImage" />
        <dc:title>Multi-platform-technology-computer-web-internet</dc:title>
      </cc:Work>
    </rdf:RDF>
  </metadata>
  <defs
     id="defs28" />
  <sodipodi:namedview
     inkscape:current-layer="svg24"
     inkscape:window-maximized="0"
     inkscape:window-y="38"
     inkscape:window-x="2636"
     inkscape:cy="15.448754"
     inkscape:cx="36.244972"
     inkscape:zoom="3.8448931"
     showgrid="false"
     id="namedview26"
     inkscape:window-height="857"
     inkscape:window-width="1585"
     inkscape:pageshadow="2"
     inkscape:pageopacity="0"
     guidetolerance="10"
     gridtolerance="10"
     objecttolerance="10"
     borderopacity="1"
     bordercolor="#666666"
     pagecolor="#ffffff" />
  <title
     id="title2">Multi-platform-technology-computer-web-internet</title>
  <g
     style="fill:#ffffff"
     id="g18"
     data-name="outline create">
    <path
       style="fill:#ffffff"
       id="path4"
       d="M57,7H7a5.006,5.006,0,0,0-5,5V49a5.006,5.006,0,0,0,5,5H23v2a4,4,0,0,1-4,4H17v2H28V60H23.46A5.969,5.969,0,0,0,25,56V54h3V52H7a3,3,0,0,1-3-3V48H28V46H4V17H60V29h2V12A5.006,5.006,0,0,0,57,7Zm3,8H4V12A3,3,0,0,1,7,9H57a3,3,0,0,1,3,3Z" />
    <rect
       style="fill:#ffffff"
       id="rect6"
       height="2"
       width="2"
       y="11"
       x="7" />
    <rect
       style="fill:#ffffff"
       id="rect8"
       height="2"
       width="2"
       y="11"
       x="11" />
    <rect
       style="fill:#ffffff"
       id="rect10"
       height="2"
       width="2"
       y="11"
       x="15" />
    <rect
       style="fill:#ffffff"
       id="rect12"
       height="2"
       width="2"
       y="29"
       x="34" />
    <rect
       style="fill:#ffffff"
       id="rect14"
       height="2"
       width="2"
       y="29"
       x="38" />
    <path
       style="fill:#ffffff"
       id="path16"
       d="M59,31H46a3,3,0,0,0-3,3V59a2.966,2.966,0,0,0,.184,1H33a1,1,0,0,1-1-1V56h9V54H32V34h9V32H32V28a1,1,0,0,1,1-1H51a1,1,0,0,1,1,1v1h2V28a3,3,0,0,0-3-3H33a3,3,0,0,0-3,3V59a3,3,0,0,0,3,3H59a3,3,0,0,0,3-3V34A3,3,0,0,0,59,31Zm1,28a1,1,0,0,1-1,1H46a1,1,0,0,1-1-1V58H60Zm0-12v9H45V37H58V35H45V34a1,1,0,0,1,1-1H59a1,1,0,0,1,1,1Z" />
  </g>
</svg>
