<?xml version="1.0" encoding="UTF-8" standalone="no"?>
<svg
   xmlns:dc="http://purl.org/dc/elements/1.1/"
   xmlns:cc="http://creativecommons.org/ns#"
   xmlns:rdf="http://www.w3.org/1999/02/22-rdf-syntax-ns#"
   xmlns:svg="http://www.w3.org/2000/svg"
   xmlns="http://www.w3.org/2000/svg"
   xmlns:sodipodi="http://sodipodi.sourceforge.net/DTD/sodipodi-0.dtd"
   xmlns:inkscape="http://www.inkscape.org/namespaces/inkscape"
   inkscape:version="1.0 (6e3e5246a0, 2020-05-07)"
   sodipodi:docname="noun_Sync_1612070_white.svg"
   id="svg14"
   xml:space="preserve"
   style="enable-background:new 0 0 98 98;"
   viewBox="0 0 98 122.5"
   y="0px"
   x="0px"
   version="1.1"><metadata
     id="metadata20"><rdf:RDF><cc:Work
         rdf:about=""><dc:format>image/svg+xml</dc:format><dc:type
           rdf:resource="http://purl.org/dc/dcmitype/StillImage" /></cc:Work></rdf:RDF></metadata><defs
     id="defs18" /><sodipodi:namedview
     inkscape:current-layer="svg14"
     inkscape:window-maximized="0"
     inkscape:window-y="27"
     inkscape:window-x="72"
     inkscape:cy="120.8593"
     inkscape:cx="1.7957983"
     inkscape:zoom="1.2554753"
     showgrid="false"
     id="namedview16"
     inkscape:window-height="898"
     inkscape:window-width="1740"
     inkscape:pageshadow="2"
     inkscape:pageopacity="0"
     guidetolerance="10"
     gridtolerance="10"
     objecttolerance="10"
     borderopacity="1"
     bordercolor="#666666"
     pagecolor="#ffffff" /><title
     id="title2">08</title><g
     transform="matrix(1.3471877,0,0,1.4923524,-17.012374,-10.944745)"
     style="fill:#ffffff"
     id="g8"><path
       style="fill:#ffffff"
       id="path4"
       d="m 66.6,32.6 c -0.1,0 -0.1,0 -0.2,0 v 2 c 8,0 14.4,6.4 14.4,14.4 0,8 -6.4,14.4 -14.4,14.4 H 45.7 l 8.2,-9.5 -1.6,-1.3 -10.3,12 10.3,12.1 1.6,-1.4 -8.5,-9.9 h 21 c 9,0.1 16.3,-7.2 16.4,-16.2 0,-0.1 0,-0.1 0,-0.2 0.1,-9 -7.2,-16.3 -16.2,-16.4 z" /><path
       style="fill:#ffffff"
       id="path6"
       d="m 31.6,34.6 h 20.7 l -8.2,9.5 1.6,1.3 10.3,-12 -10.3,-12.1 -1.6,1.4 8.5,9.9 h -21 c -9.1,0 -16.4,7.4 -16.4,16.4 0,9.1 7.3,16.4 16.4,16.4 v -2 c -8,0 -14.4,-6.4 -14.4,-14.4 0,-8 6.4,-14.4 14.4,-14.4 z" /></g></svg>
