<?xml version="1.0" encoding="UTF-8" standalone="no"?>
<svg
   xmlns:dc="http://purl.org/dc/elements/1.1/"
   xmlns:cc="http://creativecommons.org/ns#"
   xmlns:rdf="http://www.w3.org/1999/02/22-rdf-syntax-ns#"
   xmlns:svg="http://www.w3.org/2000/svg"
   xmlns="http://www.w3.org/2000/svg"
   xmlns:sodipodi="http://sodipodi.sourceforge.net/DTD/sodipodi-0.dtd"
   xmlns:inkscape="http://www.inkscape.org/namespaces/inkscape"
   inkscape:version="1.0 (6e3e5246a0, 2020-05-07)"
   sodipodi:docname="noun_secure_1825569.svg"
   id="svg14"
   version="1.1"
   y="0px"
   x="0px"
   viewBox="0 0 100 125">
  <metadata
     id="metadata20">
    <rdf:RDF>
      <cc:Work
         rdf:about="">
        <dc:format>image/svg+xml</dc:format>
        <dc:type
           rdf:resource="http://purl.org/dc/dcmitype/StillImage" />
      </cc:Work>
    </rdf:RDF>
  </metadata>
  <defs
     id="defs18" />
  <sodipodi:namedview
     inkscape:current-layer="svg14"
     inkscape:window-maximized="0"
     inkscape:window-y="27"
     inkscape:window-x="72"
     inkscape:cy="91.757517"
     inkscape:cx="-43.151694"
     inkscape:zoom="3.48"
     showgrid="false"
     id="namedview16"
     inkscape:window-height="1014"
     inkscape:window-width="2484"
     inkscape:pageshadow="2"
     inkscape:pageopacity="0"
     guidetolerance="10"
     gridtolerance="10"
     objecttolerance="10"
     borderopacity="1"
     bordercolor="#666666"
     pagecolor="#ffffff" />
  <title
     id="title2">Ecommerce RTE</title>
  <g
     style="fill:#ffffff"
     transform="translate(-0.10305821,13.98404)"
     id="g8"
     data-name="Layer 2">
    <path
       style="fill:#ffffff"
       id="path4"
       d="m 14.96686,24.24762 a 48.82468,48.82468 0 0 0 -2.03308,14.139 62.083,62.083 0 0 0 3.73541,20.655 72.73284,72.73284 0 0 0 14.91412,24.85444 43.4183,43.4183 0 0 0 9.1662,7.6264 A 18.47616,18.47616 0 0 0 50,94.49994 15.83654,15.83654 0 0 0 56.15942,93.10864 36.07393,36.07393 0 0 0 66.91766,85.437 70.37007,70.37007 0 0 0 80.90906,65.00774 64.66785,64.66785 0 0 0 87.066,38.3866 48.83218,48.83218 0 0 0 85.0331,24.24774 a 2.50039,2.50039 0 0 0 -2.39343,-1.778 c -7.8971,0.0015 -14.0285,-1.15387 -18.82776,-3.56458 A 23.73556,23.73556 0 0 1 57.44448,14.2743 29.67646,29.67646 0 0 1 52.45766,7.31709 C 52.34993,7.11653 52.28939,6.9997 52.28908,6.99501 a 2.5,2.5 0 0 0 -4.57818,0 c -3.1e-4,0.00469 -0.06086,0.12152 -0.16858,0.32208 a 29.67646,29.67646 0 0 1 -4.98682,6.95721 24.62431,24.62431 0 0 1 -10.22412,6.205 48.434,48.434 0 0 1 -14.971,1.99048 2.5003,2.5003 0 0 0 -2.39352,1.77784 z M 38.42957,23.37457 A 28.75741,28.75741 0 0 0 46.12231,17.77826 32.47541,32.47541 0 0 0 50,12.92218 32.47287,32.47287 0 0 0 53.87762,17.77826 29.65929,29.65929 0 0 0 66.11914,25.23315 50.95257,50.95257 0 0 0 80.72906,27.44281 44.34514,44.34514 0 0 1 82.066,38.3866 57.1075,57.1075 0 0 1 78.61855,57.36908 67.79687,67.79687 0 0 1 64.76655,80.47876 38.52246,38.52246 0 0 1 56.68586,87.23022 13.67881,13.67881 0 0 1 50,89.5 10.92355,10.92355 0 0 1 45.8,88.50867 31.26456,31.26456 0 0 1 36.59736,81.88135 65.437,65.437 0 0 1 23.63685,62.92635 59.70808,59.70808 0 0 1 17.93372,38.3866 44.33465,44.33465 0 0 1 19.27307,27.4336 c 7.50818,-0.17683 13.83759,-1.39496 19.1565,-4.05903 z" />
    <path
       style="fill:#ffffff"
       id="path6"
       d="M 32.98218,56.259 43.491,66.76776 a 2.50018,2.50018 0 0 0 3.53558,0 L 67.01776,46.77655 A 2.5000008,2.5000008 0 0 0 63.48224,43.241 l -18.22351,18.22336 -8.741,-8.741 A 2.500022,2.500022 0 1 0 32.98224,56.259 Z" />
  </g>
</svg>
