<svg width="159" height="42" viewBox="0 0 159 42" fill="none" xmlns="http://www.w3.org/2000/svg">
<path d="M21.5198 38.3327C31.0793 38.3327 38.8287 30.562 38.8287 20.9764C38.8287 11.3908 31.0793 3.62012 21.5198 3.62012C11.9604 3.62012 4.21094 11.3908 4.21094 20.9764C4.21094 30.562 11.9604 38.3327 21.5198 38.3327Z" fill="white"/>
<path d="M20.2438 32.1668C24.7698 32.1668 28.4388 28.4877 28.4388 23.9494C28.4388 19.411 24.7698 15.7319 20.2438 15.7319C15.7179 15.7319 12.0488 19.411 12.0488 23.9494C12.0488 28.4877 15.7179 32.1668 20.2438 32.1668Z" fill="url(#paint0_linear)"/>
<path d="M27.6439 21.8724C30.6143 21.8724 33.0222 19.4579 33.0222 16.4794C33.0222 13.501 30.6143 11.0864 27.6439 11.0864C24.6736 11.0864 22.2656 13.501 22.2656 16.4794C22.2656 19.4579 24.6736 21.8724 27.6439 21.8724Z" fill="url(#paint1_linear)"/>
<path d="M23.141 19.4395C23.679 20.2614 24.431 20.9202 25.3154 21.3446C26.1998 21.769 27.1832 21.9429 28.159 21.8475C27.7854 20.4365 27.044 19.1507 26.0108 18.1221C24.9777 17.0935 23.6902 16.3592 22.2805 15.9946C22.1688 17.2076 22.4723 18.4225 23.141 19.4395Z" fill="#242F46"/>
<path d="M19.0989 13.8744C20.3616 13.8744 21.3853 12.8479 21.3853 11.5817C21.3853 10.3155 20.3616 9.28906 19.0989 9.28906C17.8361 9.28906 16.8125 10.3155 16.8125 11.5817C16.8125 12.8479 17.8361 13.8744 19.0989 13.8744Z" fill="url(#paint2_linear)"/>
<path d="M48.2216 32.4365C46.9326 32.4365 46.2894 31.7791 46.292 30.4642L46.3058 16.8373C46.3058 15.5474 46.9326 14.9031 48.1862 14.9044C49.4398 14.9057 50.0745 15.5513 50.0902 16.8412V16.9181C50.4603 16.2768 51.0065 15.7558 51.6638 15.4172C52.3844 15.0375 53.1886 14.8456 54.0025 14.859C55.0107 14.8382 56.0031 15.1124 56.8585 15.6479C57.6975 16.1976 58.3623 16.9764 58.7743 17.8925C59.2548 18.982 59.4879 20.165 59.4568 21.3559C59.4846 22.5518 59.2489 23.7391 58.7664 24.8331C58.3578 25.7586 57.6946 26.5481 56.8546 27.1092C56.0005 27.6494 55.006 27.9239 53.9966 27.8981C53.207 27.9075 52.4272 27.7233 51.7247 27.3617C51.076 27.0392 50.5272 26.5455 50.1374 25.9337V30.4701C50.1295 31.781 49.4909 32.4365 48.2216 32.4365ZM52.8498 25.0284C53.2258 25.041 53.5997 24.9677 53.9433 24.8139C54.2868 24.6601 54.5909 24.43 54.8325 24.1408C55.3413 23.5465 55.5964 22.6208 55.5977 21.3638C55.599 20.1067 55.3459 19.1942 54.8384 18.6262C54.5851 18.3491 54.277 18.1278 53.9338 17.9765C53.5906 17.8251 53.2198 17.7469 52.8449 17.7469C52.47 17.7469 52.0992 17.8251 51.756 17.9765C51.4128 18.1278 51.1048 18.3491 50.8514 18.6262C50.3413 19.2113 50.0863 20.1238 50.0863 21.3638C50.0863 22.6037 50.3393 23.5294 50.8455 24.1408C51.0911 24.4309 51.399 24.6614 51.7462 24.8151C52.0933 24.9688 52.4706 25.0417 52.8498 25.0284Z" fill="white"/>
<path d="M67.7823 27.9219C66.5698 27.9495 65.3697 27.6729 64.291 27.1172C63.3205 26.6016 62.5219 25.8124 61.9936 24.847C61.4288 23.7774 61.149 22.5796 61.1812 21.3698C61.1513 20.1685 61.4326 18.9799 61.9975 17.9201C62.5251 16.9579 63.3252 16.1741 64.2969 15.6677C65.3882 15.1484 66.5811 14.8789 67.7892 14.8789C68.9972 14.8789 70.1901 15.1484 71.2815 15.6677C72.255 16.1769 73.0579 16.9615 73.5907 17.9241C74.1614 18.9826 74.4449 20.1728 74.4129 21.3757C74.4439 22.5867 74.1584 23.7848 73.5848 24.851C73.0476 25.8136 72.2443 26.5999 71.2717 27.1152C70.1942 27.6726 68.9944 27.9499 67.7823 27.9219ZM67.7823 25.0442C68.1599 25.0549 68.5351 24.9805 68.8802 24.8265C69.2254 24.6726 69.5318 24.443 69.7768 24.1547C70.2934 23.5617 70.5557 22.6367 70.5636 21.3796C70.5714 20.1226 70.3138 19.2094 69.7906 18.6401C69.5443 18.3544 69.2378 18.1272 68.8932 17.975C68.5485 17.8229 68.1744 17.7496 67.798 17.7604C67.4232 17.7477 67.0503 17.8199 66.7071 17.9715C66.3638 18.1231 66.0591 18.3503 65.8153 18.6361C65.3079 19.2226 65.0528 20.1351 65.0502 21.3737C65.0476 22.6123 65.3007 23.538 65.8094 24.1508C66.0501 24.4394 66.3528 24.6696 66.6948 24.8243C67.0368 24.9791 67.4092 25.0543 67.7843 25.0442H67.7823Z" fill="white"/>
<path d="M81.2455 27.9358C78.2478 27.9358 76.7503 26.2619 76.7529 22.9142L76.7647 11.4273C76.7647 10.1203 77.4092 9.4668 78.6982 9.4668C79.9873 9.4668 80.6213 10.1242 80.6003 11.4391L80.5885 22.7722C80.5885 23.4684 80.736 23.9832 81.033 24.3126C81.1808 24.478 81.3632 24.6086 81.5673 24.6949C81.7713 24.7812 81.9919 24.821 82.2132 24.8116C82.3448 24.8122 82.4762 24.8036 82.6066 24.786C82.7286 24.7699 82.8514 24.7614 82.9744 24.7603C83.0844 24.7418 83.1974 24.7563 83.2992 24.8019C83.401 24.8475 83.4871 24.9222 83.5468 25.0167C83.6543 25.2034 83.7087 25.5854 83.71 26.1627C83.71 27.1475 83.2944 27.7077 82.463 27.8431C82.2938 27.8589 82.0991 27.8806 81.8729 27.9062C81.6644 27.9271 81.455 27.937 81.2455 27.9358Z" fill="white"/>
<path d="M88.2491 32.4861C87.5724 32.4861 87.0945 32.235 86.8152 31.7327C86.5359 31.2304 86.549 30.6492 86.8545 29.9891L88.2038 26.9833L84.0732 17.4549C83.8031 16.7975 83.8077 16.2156 84.087 15.7094C84.3663 15.2031 84.9302 14.9533 85.7786 14.9599C86.1714 14.9418 86.5593 15.0541 86.882 15.2794C87.1613 15.4924 87.419 15.8961 87.6551 16.4904L90.2396 23.1155L92.9383 16.4707C93.1756 15.8935 93.4432 15.499 93.7408 15.2873C94.0996 15.0573 94.5214 14.9462 94.9466 14.9698C95.5891 14.9698 96.0422 15.2202 96.3057 15.7212C96.5693 16.2222 96.5555 16.7955 96.2644 17.4411L90.2927 31.0009C90.039 31.5769 89.7538 31.9674 89.4411 32.1705C89.0837 32.3918 88.6688 32.5016 88.2491 32.4861Z" fill="white"/>
<path d="M104.612 27.9062C103.577 27.9062 102.856 27.3881 102.448 26.352L98.8745 17.4587C98.6057 16.7618 98.6109 16.1701 98.8902 15.6836C99.1696 15.197 99.6987 14.9551 100.478 14.9577C100.863 14.9436 101.242 15.0558 101.557 15.2773C101.837 15.4903 102.085 15.8946 102.305 16.4883L104.787 23.1942L107.411 16.1688C107.698 15.3706 108.24 14.9722 109.038 14.9735C109.835 14.9748 110.385 15.3739 110.688 16.1707L113.271 23.3047L115.818 16.4015C116.015 15.8591 116.28 15.4863 116.593 15.2812C116.907 15.0783 117.274 14.9727 117.647 14.9775C118.375 14.9775 118.849 15.2339 119.069 15.7427C119.29 16.2516 119.266 16.8295 118.992 17.4744L115.432 26.3717C115.026 27.4078 114.305 27.9252 113.269 27.9239C112.233 27.9226 111.512 27.4039 111.105 26.3677L108.9 20.5848L106.736 26.3381C106.352 27.3861 105.644 27.9088 104.612 27.9062Z" fill="white"/>
<path d="M123.338 27.9256C122.018 27.9256 121.358 27.2681 121.359 25.9532L121.369 16.912C121.369 15.6221 121.996 14.9778 123.25 14.9791C124.503 14.9804 125.129 15.626 125.128 16.916V17.3755C125.738 15.8647 127 15.0508 128.914 14.9338C129.092 14.9053 129.274 14.9194 129.444 14.9749C129.615 15.0305 129.771 15.1259 129.898 15.2533C130.126 15.5005 130.249 15.9035 130.266 16.4623C130.32 16.9042 130.206 17.3504 129.945 17.7108C129.7 18.0172 129.289 18.2032 128.714 18.269L128.124 18.3203C126.228 18.5057 125.278 19.4721 125.276 21.2196V25.9532C125.266 27.2694 124.621 27.9269 123.338 27.9256Z" fill="white"/>
<path d="M135.904 27.9889C135.052 28.0047 134.208 27.8203 133.439 27.4505C132.761 27.1205 132.18 26.6196 131.752 25.9969C131.338 25.3898 131.121 24.6692 131.132 23.9338C131.132 23.0344 131.37 22.3112 131.844 21.7642C132.319 21.2172 133.089 20.8333 134.155 20.6124C135.222 20.3862 136.636 20.2732 138.398 20.2732H139.313V19.8392C139.313 19.0924 139.144 18.5618 138.805 18.2476C138.467 17.932 137.893 17.7742 137.078 17.7742C136.575 17.7795 136.074 17.8343 135.581 17.9379C134.981 18.0658 134.394 18.2487 133.827 18.4842C133.352 18.688 132.954 18.7005 132.633 18.5217C132.477 18.437 132.34 18.3207 132.231 18.1801C132.122 18.0396 132.043 17.8778 132 17.7052C131.897 17.3373 131.929 16.9449 132.09 16.5987C132.182 16.4027 132.314 16.2285 132.478 16.088C132.642 15.9475 132.835 15.8439 133.042 15.7841C133.77 15.4984 134.522 15.2818 135.29 15.1372C135.931 15.0133 136.581 14.9473 137.234 14.9399C139.165 14.9399 140.608 15.3785 141.561 16.2555C142.514 17.1325 142.987 18.4869 142.979 20.3185V25.9732C142.979 27.2802 142.389 27.9331 141.209 27.9317C140.029 27.9304 139.428 27.273 139.407 25.9594V25.8075C139.16 26.4584 138.709 27.0118 138.123 27.3854C137.459 27.8012 136.687 28.0112 135.904 27.9889ZM136.77 25.4249C137.104 25.432 137.437 25.3702 137.748 25.2433C138.058 25.1165 138.339 24.9272 138.573 24.6873C138.82 24.4364 139.012 24.1376 139.139 23.8092C139.266 23.4809 139.324 23.1299 139.311 22.778V22.2692H138.424C137.12 22.2692 136.197 22.3829 135.654 22.6104C135.41 22.6934 135.198 22.8535 135.051 23.0667C134.905 23.2799 134.831 23.5349 134.84 23.7938C134.834 24.0132 134.874 24.2313 134.959 24.4335C135.045 24.6357 135.172 24.8171 135.334 24.9653C135.664 25.2632 136.142 25.415 136.77 25.417V25.4249Z" fill="white"/>
<path d="M147.76 32.5333C146.473 32.5333 145.831 31.8758 145.832 30.5609L145.846 16.934C145.846 15.6441 146.473 14.9998 147.726 15.0012C148.98 15.0025 149.614 15.6481 149.63 16.938V17.0149C150 16.3736 150.547 15.8526 151.204 15.514C151.924 15.1341 152.729 14.9421 153.542 14.9558C154.551 14.9341 155.544 15.2083 156.399 15.7447C157.238 16.2931 157.903 17.0714 158.314 17.9873C158.795 19.0768 159.028 20.2598 158.997 21.4507C159.025 22.6466 158.789 23.834 158.306 24.9279C157.895 25.8557 157.227 26.6461 156.383 27.206C155.529 27.7461 154.534 28.0206 153.525 27.9949C152.741 28.0047 151.967 27.8241 151.269 27.4683C150.62 27.1458 150.071 26.6522 149.681 26.0403V30.5767C149.671 31.8837 149.03 32.5359 147.76 32.5333ZM152.39 25.1271C152.766 25.1385 153.14 25.0644 153.483 24.9104C153.826 24.7563 154.13 24.5263 154.373 24.2376C154.881 23.6446 155.136 22.7189 155.138 21.4606C155.139 20.2022 154.886 19.2897 154.378 18.723C154.125 18.4458 153.817 18.2245 153.473 18.0731C153.13 17.9218 152.759 17.8436 152.384 17.8436C152.009 17.8436 151.638 17.9218 151.295 18.0731C150.951 18.2245 150.643 18.4458 150.389 18.723C149.882 19.3081 149.628 20.2206 149.626 21.4606C149.625 22.7005 149.878 23.6262 150.386 24.2376C150.631 24.5278 150.939 24.7585 151.286 24.9126C151.633 25.0666 152.011 25.14 152.39 25.1271Z" fill="white"/>
<defs>
<linearGradient id="paint0_linear" x1="28.4388" y1="15.7319" x2="12.0201" y2="26.989" gradientUnits="userSpaceOnUse">
<stop stop-color="#74DD9F"/>
<stop offset="1" stop-color="#27C69F"/>
</linearGradient>
<linearGradient id="paint1_linear" x1="27.6439" y1="23.8948" x2="22.2406" y2="11.097" gradientUnits="userSpaceOnUse">
<stop stop-color="#1B5FED"/>
<stop offset="1" stop-color="#1B87ED"/>
</linearGradient>
<linearGradient id="paint2_linear" x1="16.8125" y1="9.28906" x2="21.3853" y2="9.28906" gradientUnits="userSpaceOnUse">
<stop stop-color="#FFC272"/>
<stop offset="1" stop-color="#FFE272"/>
</linearGradient>
</defs>
</svg>
